<svg id="svg" version="1.1" width="756" height="760" xmlns="http://www.w3.org/2000/svg"><path d="M221.000 139.388 C 204.689 143.009,191.038 155.238,184.616 171.983 L 182.500 177.500 182.220 333.500 C 182.044 431.634,182.302 491.852,182.917 495.840 C 185.650 513.554,198.951 529.021,216.734 535.163 L 223.500 537.500 432.000 537.500 L 640.500 537.500 647.266 535.163 C 660.901 530.454,671.015 521.334,677.392 508.000 L 680.500 501.500 680.500 338.000 L 680.500 174.500 676.737 166.619 C 670.014 152.539,656.237 141.751,641.566 139.080 C 632.563 137.441,228.440 137.737,221.000 139.388 M645.097 167.101 C 648.927 169.644,651.398 172.287,653.510 176.101 L 656.500 181.500 656.766 298.339 C 656.934 372.093,656.681 415.053,656.079 414.839 C 655.555 414.652,630.322 385.561,600.006 350.191 C 560.430 304.019,543.562 285.044,540.192 282.906 C 531.032 277.096,518.742 275.403,508.278 278.510 C 498.439 281.432,494.295 285.808,443.414 347.000 C 416.660 379.175,394.327 405.665,393.785 405.867 C 393.242 406.069,383.956 397.457,373.149 386.729 C 361.653 375.317,351.758 366.351,349.301 365.118 C 346.991 363.959,341.933 362.468,338.060 361.804 C 330.038 360.428,321.670 361.631,314.554 365.183 C 311.998 366.459,291.476 386.100,259.000 418.353 L 207.500 469.500 207.229 327.000 C 206.980 195.502,207.089 184.153,208.641 180.000 C 211.662 171.923,217.405 166.220,224.764 163.991 C 226.269 163.535,320.239 163.238,433.587 163.331 L 639.674 163.500 645.097 167.101 M295.348 214.420 C 286.483 216.570,278.902 220.950,271.967 227.927 C 254.829 245.169,252.331 270.376,265.740 290.751 C 275.383 305.403,294.374 314.320,311.995 312.470 C 352.856 308.181,371.417 259.237,343.555 229.254 C 331.087 215.837,312.757 210.197,295.348 214.420 M315.252 239.427 C 320.772 241.397,325.597 245.456,328.689 250.732 C 334.313 260.328,331.621 275.181,323.026 281.973 C 318.909 285.227,311.298 288.019,306.715 287.956 C 290.586 287.736,278.004 269.924,283.371 254.910 C 288.022 241.898,302.489 234.872,315.252 239.427 M526.123 303.757 C 527.566 304.715,557.643 339.217,592.961 380.427 L 657.176 455.354 656.820 474.927 C 656.418 497.077,655.790 499.343,648.132 506.262 C 640.119 513.501,656.193 513.000,432.000 513.000 C 208.011 513.000,223.868 513.490,215.940 506.327 C 213.773 504.369,212.000 502.256,212.000 501.630 C 212.000 500.184,323.751 388.587,326.684 387.104 C 329.490 385.686,334.523 385.690,337.316 387.113 C 338.517 387.725,350.525 399.153,364.000 412.509 C 382.806 431.148,389.255 436.951,391.747 437.475 C 399.459 439.096,398.144 440.457,456.465 370.501 C 486.428 334.559,511.957 304.443,513.195 303.576 C 516.175 301.489,522.851 301.582,526.123 303.757 M139.252 331.817 C 137.466 332.770,135.385 334.438,134.629 335.525 C 133.873 336.611,130.269 348.525,126.621 362.000 C 122.973 375.475,118.889 390.550,117.545 395.500 C 116.202 400.450,111.438 418.225,106.959 435.000 C 102.480 451.775,95.383 477.875,91.188 493.000 L 83.561 520.500 83.530 534.000 L 83.500 547.500 87.240 555.332 C 91.649 564.567,100.736 574.312,108.701 578.349 C 111.531 579.782,120.518 582.763,128.673 584.972 C 136.828 587.181,145.975 589.673,149.000 590.510 C 152.025 591.347,164.625 594.718,177.000 598.000 C 189.375 601.282,201.975 604.657,205.000 605.500 C 208.025 606.343,221.300 609.908,234.500 613.423 C 306.484 632.589,323.961 637.259,328.500 638.541 C 335.238 640.445,376.932 651.626,401.000 657.983 C 411.725 660.816,425.225 664.428,431.000 666.010 C 436.775 667.592,450.725 671.341,462.000 674.342 C 519.123 689.546,516.295 689.023,527.670 686.500 C 538.550 684.087,546.384 679.866,553.500 672.583 C 563.511 662.338,563.183 663.214,578.988 604.500 C 582.838 590.200,585.990 577.015,585.994 575.200 C 586.007 568.203,580.801 562.996,573.800 563.004 C 570.112 563.008,564.628 565.946,563.174 568.696 C 562.650 569.688,558.300 585.125,553.508 603.000 C 542.579 643.765,541.443 647.548,538.893 651.673 C 535.969 656.405,528.990 660.885,522.744 662.040 C 516.783 663.141,513.646 662.447,464.240 649.086 C 431.025 640.104,381.297 626.773,354.000 619.533 C 342.175 616.396,327.775 612.535,322.000 610.952 C 316.225 609.369,302.950 605.811,292.500 603.045 C 271.942 597.605,267.944 596.528,252.000 592.142 C 246.225 590.553,235.875 587.787,229.000 585.995 C 211.272 581.374,173.430 571.297,167.500 569.617 C 164.750 568.838,153.500 565.795,142.500 562.855 C 119.322 556.659,115.400 554.588,110.584 546.000 C 105.651 537.203,106.119 533.329,116.860 494.000 C 121.892 475.575,128.721 450.375,132.035 438.000 C 135.349 425.625,139.206 411.225,140.605 406.000 C 142.005 400.775,144.021 393.350,145.087 389.500 C 152.284 363.490,156.999 344.828,156.996 342.369 C 156.991 338.281,153.817 333.615,149.717 331.670 C 145.338 329.592,143.370 329.620,139.252 331.817 " stroke="none" fill="black" fill-rule="evenodd"/></svg>