<svg id="svg" version="1.1" width="756" height="746" xmlns="http://www.w3.org/2000/svg"><path d="M548.861 125.912 L 546.500 127.823 546.500 161.884 L 546.500 195.944 548.775 198.222 C 550.880 200.329,552.062 200.525,564.578 200.828 L 578.106 201.157 577.482 208.328 C 571.245 280.054,518.687 340.932,448.728 357.466 C 437.116 360.211,419.824 362.530,417.532 361.651 C 416.266 361.165,416.000 358.837,416.000 348.254 C 416.000 338.279,415.656 334.953,414.443 333.223 L 412.887 331.000 378.066 331.000 C 346.940 331.000,343.099 331.175,341.872 332.649 C 340.921 333.792,340.347 338.465,340.000 347.899 L 339.500 361.500 277.771 361.758 L 216.041 362.015 213.598 357.194 C 210.785 351.643,204.411 345.499,199.140 343.259 C 197.031 342.362,192.555 341.706,188.500 341.699 C 180.023 341.685,173.059 344.777,167.841 350.872 C 156.097 364.593,160.256 385.494,176.362 393.696 C 182.645 396.896,193.105 397.302,199.500 394.595 C 204.758 392.370,210.584 386.650,213.603 380.750 L 216.034 376.000 245.017 376.000 C 260.958 376.000,273.979 376.337,273.954 376.750 C 273.928 377.163,270.504 379.075,266.344 381.000 C 258.054 384.836,241.518 395.262,233.214 401.887 C 201.391 427.275,178.985 462.768,169.067 503.500 C 167.421 510.261,165.004 526.492,164.985 530.913 C 164.976 532.886,164.636 535.025,164.228 535.666 C 163.742 536.429,158.879 536.947,150.152 537.166 C 137.545 537.482,136.715 537.629,134.909 539.861 C 133.114 542.080,133.000 544.249,133.000 576.111 C 133.000 608.667,133.079 610.079,135.000 612.000 C 136.921 613.921,138.333 614.000,170.889 614.000 C 202.766 614.000,204.919 613.887,207.139 612.088 L 209.500 610.177 209.500 576.116 L 209.500 542.056 207.225 539.778 C 205.120 537.670,203.938 537.475,191.397 537.171 L 177.844 536.842 178.530 529.171 C 184.136 466.482,225.751 410.917,284.518 387.654 C 300.652 381.268,333.415 374.410,338.489 376.357 C 339.728 376.833,340.000 379.242,340.000 389.746 C 340.000 399.721,340.344 403.047,341.557 404.777 L 343.113 407.000 377.934 407.000 C 409.060 407.000,412.901 406.825,414.128 405.351 C 415.079 404.208,415.653 399.535,416.000 390.101 L 416.500 376.500 474.741 376.242 L 532.982 375.984 535.003 380.284 C 539.776 390.437,549.085 396.286,560.500 396.305 C 571.285 396.323,580.135 390.923,585.024 381.343 C 588.533 374.465,588.533 363.535,585.024 356.657 C 580.126 347.058,571.272 341.664,560.500 341.719 C 548.875 341.777,539.829 347.451,535.007 357.708 L 532.990 362.000 507.495 362.000 C 493.473 362.000,482.021 361.663,482.046 361.250 C 482.072 360.837,485.496 358.925,489.656 357.000 C 498.009 353.135,514.494 342.728,522.954 335.981 C 560.241 306.242,584.420 262.653,590.062 215.000 C 590.680 209.775,591.369 204.522,591.593 203.327 C 591.983 201.244,592.554 201.142,605.590 200.827 C 618.473 200.517,619.281 200.377,621.091 198.139 C 622.886 195.920,623.000 193.751,623.000 161.889 C 623.000 129.333,622.921 127.921,621.000 126.000 C 619.079 124.079,617.667 124.000,585.111 124.000 C 553.234 124.000,551.081 124.113,548.861 125.912 M609.500 162.000 L 609.500 186.500 585.000 186.500 L 560.500 186.500 560.231 163.021 C 560.083 150.107,560.185 138.962,560.456 138.253 C 560.845 137.240,566.146 137.022,585.225 137.232 L 609.500 137.500 609.500 162.000 M402.500 369.000 L 402.500 393.500 378.000 393.500 L 353.500 393.500 353.231 370.021 C 353.083 357.107,353.185 345.962,353.456 345.253 C 353.845 344.240,359.146 344.022,378.225 344.232 L 402.500 344.500 402.500 369.000 M195.759 356.995 C 202.576 361.151,204.883 369.400,201.005 375.759 C 193.406 388.223,174.727 383.388,174.727 368.957 C 174.727 358.064,186.516 351.359,195.759 356.995 M566.383 356.387 C 576.630 360.668,576.996 376.331,566.971 381.515 C 560.490 384.867,551.972 382.283,547.995 375.759 C 544.117 369.400,546.424 361.151,553.241 356.995 C 557.062 354.665,561.743 354.448,566.383 356.387 M195.500 576.000 L 195.500 600.500 171.000 600.500 L 146.500 600.500 146.231 577.021 C 146.083 564.107,146.185 552.962,146.456 552.253 C 146.845 551.240,152.146 551.022,171.225 551.232 L 195.500 551.500 195.500 576.000 " stroke="none" fill="black" fill-rule="evenodd"/></svg>